<svg version="1.0" xmlns="http://www.w3.org/2000/svg"
     width="40.000000pt" height="40.000000pt" viewBox="0 0 1500.000000 1500.000000"
     preserveAspectRatio="xMidYMid meet">

    <g transform="translate(0.000000,1500.000000) scale(0.100000,-0.100000)"
       fill="#000000" stroke="none">
        <path d="M9007 14287 c-16 -12 -100 -143 -250 -386 -78 -127 -112 -180 -127
-198 -5 -7 -10 -15 -10 -18 0 -15 -250 -383 -278 -409 -26 -24 -36 -28 -64
-21 -40 9 -180 19 -513 36 -200 10 -298 10 -490 0 -251 -13 -410 -24 -534 -36
l-74 -8 -35 39 c-42 47 -132 179 -132 194 0 5 -4 10 -8 10 -5 0 -15 12 -23 28
-8 15 -33 57 -56 94 -24 36 -43 71 -43 76 0 6 -4 12 -9 14 -8 3 -32 40 -148
232 -30 49 -72 115 -94 147 -21 32 -39 60 -39 63 0 6 -62 101 -84 129 -27 35
-167 11 -456 -79 -47 -14 -98 -29 -115 -34 -34 -9 -120 -37 -150 -49 -11 -5
-38 -14 -60 -20 -22 -7 -49 -16 -60 -21 -11 -5 -40 -16 -65 -24 -55 -18 -220
-81 -269 -102 -20 -9 -49 -22 -66 -29 -90 -39 -303 -137 -320 -147 -38 -22
-135 -68 -145 -68 -6 0 -10 -4 -10 -10 0 -5 -5 -10 -10 -10 -6 0 -66 -30 -133
-67 -199 -108 -209 -114 -306 -183 l-63 -44 5 -56 c3 -30 10 -77 17 -105 22
-92 31 -130 40 -170 5 -22 13 -58 18 -80 6 -22 18 -74 27 -115 10 -41 26 -113
37 -160 11 -47 24 -103 29 -125 6 -22 14 -58 19 -80 5 -22 13 -58 19 -80 5
-22 19 -84 31 -139 l20 -98 -21 -34 c-11 -19 -24 -34 -27 -34 -4 0 -27 -18
-52 -39 -25 -21 -99 -85 -165 -142 -132 -113 -567 -544 -661 -654 -32 -38 -66
-77 -75 -85 -8 -8 -20 -22 -25 -32 -14 -26 -155 -178 -173 -187 -9 -5 -53 0
-106 11 -165 34 -180 37 -225 48 -25 6 -65 15 -90 20 -25 6 -63 14 -85 19 -39
10 -105 25 -175 41 -19 4 -89 20 -155 35 -66 15 -136 31 -155 35 -19 5 -57 14
-85 20 -27 7 -72 13 -99 14 l-49 1 -53 -75 c-29 -41 -53 -78 -53 -82 -1 -4
-14 -29 -29 -55 -73 -123 -292 -543 -292 -558 0 -3 -18 -44 -41 -92 -23 -49
-46 -99 -51 -113 -51 -123 -76 -187 -107 -275 -18 -49 -36 -99 -41 -110 -5
-11 -18 -49 -30 -85 -12 -36 -25 -74 -30 -85 -8 -19 -29 -90 -66 -220 -9 -33
-20 -69 -24 -80 -7 -19 -14 -44 -41 -147 -6 -24 -15 -51 -20 -60 -5 -10 -9
-28 -9 -41 0 -13 -5 -28 -11 -34 -6 -6 -9 -28 -7 -49 3 -38 7 -42 133 -127 72
-49 137 -91 145 -94 8 -4 26 -14 40 -24 74 -50 227 -146 243 -152 9 -4 44 -25
77 -47 32 -22 61 -40 63 -40 3 0 70 -42 150 -92 80 -51 160 -101 177 -111 30
-16 32 -20 26 -55 -8 -51 -23 -230 -37 -452 -11 -176 -7 -719 6 -850 3 -30 11
-100 17 -155 6 -55 12 -127 15 -160 5 -68 19 -52 -133 -146 -40 -24 -100 -62
-135 -84 -35 -22 -80 -49 -99 -60 -20 -11 -79 -48 -132 -83 -53 -34 -99 -62
-103 -62 -3 0 -46 -27 -95 -60 -49 -33 -91 -60 -94 -60 -3 0 -24 -13 -48 -28
-24 -16 -59 -38 -78 -48 -19 -10 -43 -27 -54 -36 -11 -10 -23 -18 -28 -18 -4
0 -19 -10 -33 -22 -25 -22 -33 -62 -15 -73 6 -3 10 -17 10 -30 0 -13 4 -34 9
-47 5 -13 14 -42 20 -65 24 -94 32 -122 62 -228 31 -110 112 -362 128 -400 9
-19 19 -46 77 -205 15 -41 36 -95 47 -120 10 -25 25 -58 32 -75 7 -16 25 -56
39 -88 14 -32 26 -60 26 -63 0 -13 229 -461 250 -489 4 -5 21 -35 37 -65 56
-103 75 -135 119 -201 63 -95 60 -94 151 -74 43 9 96 21 118 25 22 5 58 14 80
20 22 6 58 15 80 20 22 5 58 13 80 19 22 6 54 13 70 16 17 3 46 10 65 15 19 5
94 23 165 40 72 17 156 38 188 46 32 8 69 14 82 14 13 0 26 4 29 9 3 4 22 11
43 14 21 4 58 11 82 16 43 9 46 7 75 -23 17 -18 61 -70 98 -117 37 -46 80 -98
95 -116 15 -17 37 -42 47 -55 34 -42 300 -321 356 -374 183 -172 310 -285 420
-373 77 -62 150 -141 150 -164 0 -16 -24 -125 -49 -227 -5 -19 -14 -53 -19
-75 -6 -22 -16 -67 -22 -100 -7 -33 -16 -69 -20 -80 -5 -11 -11 -36 -13 -55
-5 -37 -59 -290 -97 -450 -4 -19 -13 -56 -19 -83 -20 -88 -15 -122 24 -154 31
-26 153 -102 230 -144 242 -131 314 -168 555 -281 136 -64 181 -84 255 -113
39 -15 78 -31 87 -36 10 -5 23 -9 28 -9 6 0 30 -9 52 -20 23 -11 50 -20 59
-20 10 0 21 -4 24 -10 3 -5 16 -10 29 -10 12 0 26 -4 32 -8 5 -5 43 -19 84
-32 41 -12 134 -41 205 -65 72 -23 150 -48 175 -55 25 -7 56 -16 70 -20 14 -4
43 -12 65 -18 22 -6 59 -15 81 -21 68 -18 118 -14 141 11 27 29 206 300 306
462 7 11 39 63 72 116 33 52 65 105 72 115 47 78 122 197 148 235 16 25 36 57
44 72 18 36 27 38 112 27 172 -23 233 -29 394 -41 340 -24 633 -14 1115 41 47
5 91 6 98 2 11 -6 68 -96 256 -401 26 -41 76 -122 111 -178 36 -57 65 -106 65
-109 0 -2 14 -24 30 -48 16 -24 30 -48 30 -54 0 -6 5 -11 10 -11 6 0 10 -4 10
-10 0 -20 136 -220 158 -231 19 -11 44 -7 155 20 73 18 157 41 187 50 30 10
89 29 130 41 140 43 420 137 475 160 11 4 36 15 57 24 20 9 89 37 155 62 137
52 160 63 428 195 189 93 329 166 420 219 22 13 52 29 66 37 15 7 32 20 39 28
7 8 18 15 24 15 6 0 27 14 45 31 39 35 39 39 -11 244 -5 22 -12 54 -14 70 -3
17 -9 39 -14 50 -5 11 -11 34 -15 50 -15 74 -33 149 -70 305 -15 63 -31 133
-36 155 -8 41 -22 100 -40 170 -6 22 -13 57 -16 78 -3 20 -9 40 -14 43 -11 7
-12 104 -1 104 5 0 34 21 65 47 31 27 75 64 99 83 252 206 643 591 818 805
109 135 184 217 209 230 28 14 44 12 137 -16 17 -5 39 -9 49 -9 10 0 32 -4 49
-9 17 -6 85 -22 151 -37 66 -14 155 -35 199 -45 43 -11 89 -19 102 -19 12 0
26 -4 29 -10 3 -5 18 -10 32 -10 15 0 40 -4 57 -9 46 -14 104 -28 171 -41 33
-7 69 -16 80 -20 23 -9 134 -30 157 -30 15 0 55 55 101 140 11 19 36 64 57
100 67 117 350 684 350 703 0 4 11 31 25 61 14 30 25 57 25 60 0 4 8 25 19 49
10 23 33 80 51 127 17 47 36 94 40 105 27 66 104 296 129 385 8 25 17 54 21
65 5 11 11 31 14 45 2 14 10 43 16 65 6 22 14 51 16 65 3 14 9 34 14 45 8 19
27 118 32 160 3 31 -12 65 -28 65 -8 0 -14 5 -14 10 0 6 -5 10 -10 10 -6 0
-69 38 -141 85 -71 47 -132 85 -135 85 -3 0 -24 13 -47 28 -23 16 -49 32 -57
36 -22 10 -45 24 -143 88 -48 32 -91 58 -96 58 -4 0 -16 9 -26 20 -10 11 -22
20 -27 20 -4 0 -31 16 -58 35 -27 19 -54 35 -58 35 -5 0 -17 9 -27 20 -10 11
-22 20 -26 20 -11 0 -121 83 -139 104 -10 13 -10 43 -1 159 33 403 33 1078 1
1322 -5 39 -12 96 -16 127 l-7 58 44 39 c24 22 87 67 139 100 52 33 100 64
105 69 6 5 15 11 20 13 6 2 50 29 98 59 48 30 103 64 121 75 42 26 231 145
318 201 37 24 70 44 72 44 19 0 127 85 131 103 7 30 -22 167 -76 355 -5 17
-13 47 -18 65 -5 17 -15 52 -24 77 -8 25 -27 83 -41 130 -31 97 -45 136 -161
440 -37 98 -46 118 -100 235 -17 39 -49 108 -71 155 -65 140 -283 570 -295
580 -3 3 -22 34 -42 70 -55 96 -59 100 -105 100 -23 0 -51 -4 -64 -9 -13 -5
-48 -14 -78 -20 -30 -7 -73 -17 -95 -22 -55 -15 -102 -26 -155 -38 -267 -60
-284 -64 -385 -90 -22 -5 -65 -15 -95 -22 -30 -6 -66 -15 -80 -20 -14 -4 -50
-13 -80 -20 -30 -6 -68 -15 -84 -20 -16 -5 -42 -9 -57 -9 -28 0 -34 6 -136
135 -16 20 -120 141 -138 161 -5 6 -48 54 -95 108 -119 135 -409 417 -548 533
-64 53 -135 113 -157 133 -23 19 -67 57 -98 85 -40 34 -55 54 -51 65 6 15 14
47 34 140 5 25 14 65 20 90 6 25 15 63 19 85 5 22 25 112 46 200 21 88 41 178
46 200 4 22 12 58 17 80 14 55 31 132 43 183 5 23 14 63 20 90 22 98 22 122 3
144 -18 20 -177 128 -189 128 -3 0 -35 18 -71 40 -67 41 -454 236 -554 279
-30 14 -82 37 -115 51 -131 59 -282 119 -380 151 -22 7 -44 17 -50 21 -5 4
-17 8 -27 8 -10 0 -26 4 -36 10 -43 24 -405 135 -619 189 -66 17 -140 21 -156
8z m-1147 -2077 c259 -13 380 -26 540 -60 25 -5 59 -12 75 -15 17 -3 46 -10
65 -15 19 -5 58 -14 85 -21 89 -21 410 -117 435 -130 8 -4 53 -22 100 -39 47
-18 104 -41 127 -51 24 -11 45 -19 48 -19 17 0 325 -150 449 -219 60 -34 113
-61 118 -61 4 0 8 -4 8 -10 0 -5 4 -10 9 -10 12 0 154 -90 291 -185 98 -67
291 -218 403 -313 159 -136 418 -402 540 -554 21 -26 44 -53 50 -60 16 -16
128 -165 142 -187 6 -10 24 -35 41 -56 33 -43 94 -134 94 -140 0 -2 14 -24 30
-48 17 -25 30 -49 30 -55 0 -6 4 -12 9 -14 17 -6 186 -334 266 -518 21 -47 46
-103 55 -125 31 -68 170 -461 183 -517 3 -13 11 -41 17 -63 6 -22 16 -58 21
-80 6 -22 14 -56 18 -75 37 -149 68 -338 94 -565 13 -114 16 -841 4 -955 -8
-76 -11 -101 -48 -340 -24 -156 -34 -209 -48 -265 -6 -22 -14 -58 -20 -80 -21
-90 -76 -283 -91 -320 -5 -11 -16 -45 -25 -75 -14 -50 -42 -127 -66 -187 -5
-13 -13 -33 -18 -45 -13 -33 -36 -86 -61 -143 -13 -27 -36 -79 -51 -115 -16
-36 -33 -72 -38 -80 -4 -8 -38 -73 -76 -145 -38 -71 -86 -156 -107 -187 -21
-31 -38 -59 -38 -62 0 -11 -135 -210 -175 -259 -8 -9 -15 -19 -15 -22 0 -8
-95 -132 -184 -239 -120 -145 -174 -204 -291 -322 -102 -102 -251 -239 -321
-294 -10 -8 -62 -49 -114 -91 -98 -78 -327 -237 -440 -306 -173 -106 -420
-234 -595 -308 -22 -10 -53 -23 -70 -30 -113 -49 -398 -149 -525 -185 -25 -6
-55 -16 -68 -21 -13 -5 -34 -9 -47 -9 -13 0 -26 -4 -29 -9 -3 -5 -20 -11 -38
-14 -18 -2 -80 -14 -138 -26 -358 -74 -565 -95 -925 -95 -473 0 -748 30 -1155
125 -25 6 -60 13 -78 16 -18 3 -35 9 -38 14 -3 5 -18 9 -34 9 -16 0 -32 5 -35
10 -3 6 -17 10 -31 10 -13 0 -32 4 -42 9 -9 5 -48 19 -87 31 -74 23 -193 64
-235 82 -14 6 -36 15 -50 21 -14 5 -36 14 -50 20 -14 5 -34 13 -45 17 -135 53
-434 204 -593 300 -68 41 -131 80 -140 85 -36 21 -207 139 -212 145 -3 4 -41
33 -85 66 -44 32 -91 69 -105 80 -14 12 -59 50 -100 84 -162 134 -462 439
-570 580 -19 25 -40 51 -48 58 -7 8 -25 30 -40 50 -15 21 -30 39 -33 42 -3 3
-37 50 -75 105 -38 55 -72 105 -77 110 -15 19 -157 244 -157 249 0 2 -24 46
-53 97 -29 52 -72 135 -96 184 -24 50 -54 110 -66 135 -13 25 -46 101 -75 170
-29 69 -61 144 -71 167 -11 24 -19 49 -19 56 0 7 -4 17 -8 23 -5 5 -25 63 -46
129 -20 66 -46 148 -57 181 -10 34 -19 73 -19 87 0 14 -4 28 -9 31 -5 3 -11
20 -14 38 -3 18 -11 56 -17 83 -34 157 -59 321 -81 548 -16 176 -7 945 15
1102 32 237 51 342 85 483 6 23 15 59 20 80 17 73 98 334 120 387 5 11 13 32
20 48 6 15 15 37 20 50 5 12 16 38 24 57 9 19 25 59 37 89 50 129 214 459 309
625 18 32 98 154 191 292 102 152 330 417 529 614 321 320 663 578 1046 793
59 33 371 187 378 187 3 0 38 15 79 33 40 19 89 39 108 46 19 7 44 17 55 21
96 39 282 100 395 131 184 50 265 69 291 69 15 0 31 5 34 10 3 6 20 10 37 10
17 0 47 4 67 9 20 5 68 14 106 20 39 6 103 16 144 22 156 24 556 27 951 9z"/>
        <path d="M7495 9888 c-3 -18 -122 -1090 -265 -2383 -144 -1292 -263 -2365
-266 -2382 l-6 -33 271 0 c210 0 271 3 271 13 0 6 121 1093 269 2415 l267
2402 -267 0 -268 0 -6 -32z"/>
        <path d="M5042 8272 c-419 -416 -762 -762 -762 -768 0 -12 1515 -1524 1527
-1524 4 0 91 83 193 185 l185 185 -574 574 -575 575 97 105 c54 57 311 315
572 572 261 257 475 472 475 478 0 11 -360 376 -370 376 -3 -1 -348 -342 -768
-758z"/>
        <path d="M8997 8843 l-187 -188 577 -577 576 -577 -576 -573 -577 -573 190
-190 189 -189 533 528 c293 291 638 634 767 764 l233 235 -763 763 c-420 420
-766 764 -769 764 -3 0 -89 -84 -193 -187z"/>
    </g>
</svg>
